<?xml version="1.0"?>
<svg xmlns="http://www.w3.org/2000/svg" viewBox="0 0 64 64" width="512" height="512"><g id="saw-tool-construction"><path d="M27,3,24,6l3,3-3,4,3,4-3,4,3,4-3,4,3,4-3,4,3,4,.09,1H43V3ZM37,7a2,2,0,1,1-2,2A2.006,2.006,0,0,1,37,7Z" style="fill:#ff5023"/><polygon points="27 3 24 6 27 9 24 13 27 17 24 21 27 25 24 29 27 33 24 37 27 41 27.09 42 30 42 30 3 27 3" style="fill:#ff9e85"/><path d="M46,42V61H17V46.98L21,42ZM42,56V46H24l-2,3v7Z" style="fill:#ffda44"/><polygon points="43 41 43 42 27.09 42 27 41 43 41" style="fill:#bf3c1a"/><rect x="17" y="59" width="29" height="2" style="fill:#bfa433"/><rect x="39" y="15" width="3" height="18" rx="1.5" style="fill:#ff7754"/></g></svg>
