<svg height="512pt" viewBox="0 0 512 512" width="512pt" xmlns="http://www.w3.org/2000/svg"><path d="m269.332031 149.664062h-103.316406l-54.109375 54.105469v76.519531l54.109375 54.105469h103.316406l54.105469-54.105469v-76.519531zm0 0" fill="#e2ecf5"/><path d="m323.4375 203.769531h113.40625l50.171875 41.242188v85.734375h-65.804687v-28.8125l-22.03125-22.03125h-75.742188zm0 0" fill="#e2ecf5"/><path d="m394.914062 331.351562h109.585938v39.304688h-109.585938zm0 0" fill="#e2ecf5"/><path d="m7.5 203.769531h104.40625v76.519531h-104.40625zm0 0" fill="#e2ecf5"/><path d="m233.753906 7.5h-34.507812l-24.402344 12.566406v32.671875l24.402344 12.566407h34.507812l24.402344-12.566407v-32.671875zm0 0" fill="#e2ecf5"/><path d="m258.15625 19.636719h100.84375v33.53125h-100.84375zm0 0" fill="#e2ecf5"/><path d="m74 19.636719h100.84375v33.53125h-100.84375zm0 0" fill="#e2ecf5"/><path d="m488.15625 465.652344c0 21.234375-17.214844 38.445312-38.449219 38.445312s-38.445312-17.210937-38.445312-38.445312 38.445312-72.992188 38.445312-72.992188 38.449219 51.757813 38.449219 72.992188zm0 0" fill="#54c8f2"/><path d="m166.507812 120.097656h102.707032v29.566406h-102.707032zm0 0" fill="#e2ecf5"/><path d="m233.753906 65.304688h-34.507812l-13.023438-6.707032h-.222656v61.5h61v-61.5h-.222656zm0 0" fill="#e2ecf5"/><g fill="#c5d1db"><path d="m131.90625 203.769531 54.109375-54.105469h-20l-54.109375 54.105469v76.519531l54.109375 54.105469h20l-54.109375-54.105469zm0 0"/><path d="m323.4375 203.769531h20v76.132813h-20zm0 0"/><path d="m419.179688 279.902344h-20l22.03125 22.03125v28.8125h20v-28.8125zm0 0"/><path d="m394.914062 331.351562h20v39.304688h-20zm0 0"/><path d="m7.5 203.769531h20v76.519531h-20zm0 0"/><path d="m194.84375 20.066406 24.402344-12.566406h-20l-24.402344 12.566406v32.671875l24.402344 12.566407h20l-24.402344-12.566407zm0 0"/><path d="m258.15625 19.636719h20v33.53125h-20zm0 0"/><path d="m74 19.636719h20v33.53125h-20zm0 0"/></g><path d="m431.261719 465.652344c0-14.144532 17.054687-41.828125 28.445312-58.738282-5.710937-8.480468-10-14.253906-10-14.253906s-38.445312 51.757813-38.445312 72.992188c0 25.296875 24.023437 43.6875 48.445312 37.125-16.382812-4.402344-28.445312-19.351563-28.445312-37.125zm0 0" fill="#00acea"/><path d="m166.507812 120.097656h20v29.566406h-20zm0 0" fill="#c5d1db"/><path d="m247 58.597656h-.222656l-13.023438 6.707032h13.246094zm0 0" fill="#c5d1db"/><path d="m199.246094 65.304688-13.023438-6.707032h-.222656v61.5h20v-54.792968zm0 0" fill="#c5d1db"/><path d="m494.519531 323.851562v-82.386718l-54.992187-45.195313h-40.1875v15h34.8125l45.367187 37.285157v74.695312h-50.808593v-24.429688l-26.425782-26.421874h-71.34375v-61.128907h48.296875v-15h-52.699219l-49.824218-49.828125v-33.84375h-22.214844v-49.539062l4.640625-2.390625h107.359375v-48.53125h-107.359375l-23.570313-12.136719h-38.144531l-23.566406 12.136719h-107.359375v48.53125h107.359375l4.640625 2.390625v49.539062h-19.492188v33.46875l-50.203124 50.203125h-108.804688v91.519531h47.441406v-15h-32.441406v-61.519531h89.40625v61.519531h-36.867188v15h41.265626l54.101562 54.105469h109.53125l54.496094-54.496093h69.140625l17.636719 17.636718v18.816406h-26.296876v54.304688h124.585938v-54.304688zm-228.863281-296.714843h85.84375v18.53125h-85.84375zm-98.3125 18.53125h-85.84375v-18.53125h85.84375zm15-21.027344 18.71875-9.640625h30.875l18.71875 9.640625v23.523437l-18.71875 9.640626h-30.875l-18.71875-9.640626zm57.15625 46.140625v41.816406h-46v-41.816406c1.292969.667969.445312.230469 3.929688 2.023438h38.144531c2.421875-1.25 2.433593-1.253907 3.925781-2.023438zm-65.492188 56.816406h87.707032v14.566406h-87.707032zm141.929688 149.585938-49.710938 49.710937h-97.105468l-49.710938-49.710937v-70.308594l49.710938-49.710938h97.101562l49.714844 49.714844zm181.0625 85.972656h-94.585938v-24.308594h94.585938zm0 0"/><path d="m449.707031 380.082031-6.019531 8.101563c-4.085938 5.503906-39.925781 54.417968-39.925781 77.464844 0 25.335937 20.609375 45.949218 45.945312 45.949218 25.335938 0 45.945313-20.613281 45.945313-45.949218 0-23.046876-35.839844-71.960938-39.925782-77.464844zm0 116.515625c-17.0625 0-30.945312-13.882812-30.945312-30.945312 0-11.847656 17.089843-40.257813 30.945312-60.140625 13.859375 19.882812 30.949219 48.292969 30.949219 60.140625 0 17.0625-13.882812 30.945312-30.949219 30.945312zm0 0"/><path d="m236.230469 245.597656h-15v-15h15zm-25 0h-15v-15h15zm0 0" fill="#fff"/></svg>